<svg width="692" height="444" viewBox="0 0 692 444" fill="none" xmlns="http://www.w3.org/2000/svg">
<path d="M350.561 124.791C344.391 114.93 337.08 104.402 325.629 101.182C312.369 97.4533 298.748 104.861 287.193 112.17C252.639 134.03 219.363 157.72 187.518 183.132L187.552 183.515C212.346 181.862 237.139 180.21 261.932 178.558C279.845 177.365 298.373 176.006 314.204 167.818C320.211 164.711 326.066 160.561 332.873 160.272C341.33 159.912 348.704 165.619 354.499 171.582C388.778 206.853 398.697 260.79 437.155 291.778C412.905 233.991 383.95 178.153 350.561 124.791V124.791Z" fill="#F2F2F2"/>
<path d="M561.268 423.949C557.477 419.324 555.929 418.241 552.189 413.573C521.744 375.525 493.127 336.191 466.34 295.573C448.145 267.986 430.852 239.869 414.462 211.223C406.659 197.604 399.069 183.879 391.694 170.046C385.971 159.321 380.375 148.531 374.908 137.678C373.344 134.578 371.825 131.463 370.313 128.342C366.751 121.002 363.254 113.626 359.5 106.385C355.223 98.1328 350.016 89.4812 342.161 83.9368C338.586 81.31 334.311 79.7206 329.837 79.3544C323.442 78.9554 317.542 81.5067 311.996 84.2931C271.416 104.739 233.426 130.373 199.064 159.542C164.614 188.776 133.822 221.804 107.314 257.952C106.504 259.071 104.586 258.002 105.404 256.876C108.627 252.471 111.914 248.115 115.265 243.806C156.931 190.261 208.019 144.216 266.195 107.775C275.982 101.646 285.954 95.8048 296.109 90.2508C301.228 87.4501 306.368 84.685 311.597 82.091C316.723 79.5468 322.166 77.2592 328.022 77.1737C347.951 76.8744 358.269 98.6815 365.356 113.355C367.584 117.973 369.838 122.577 372.12 127.166C380.741 144.59 389.695 161.856 398.981 178.962C404.711 189.523 410.567 200.023 416.549 210.461C435.164 242.965 454.95 274.811 475.906 305.999C503.667 347.311 531.206 383.806 562.832 422.438C563.702 423.507 562.146 425.033 561.268 423.949Z" fill="#E4E4E4"/>
<path d="M197.095 148.774C195.937 147.527 194.786 146.279 193.621 145.032C184.431 135.212 174.571 125.506 161.951 119.876C155.934 117.107 149.366 115.635 142.701 115.564C135.813 115.586 129.079 117.332 122.715 119.776C119.705 120.938 116.762 122.256 113.864 123.66C110.552 125.271 107.3 126.988 104.062 128.72C97.9848 131.969 91.9861 135.362 86.0664 138.896C74.2878 145.93 62.8781 153.501 51.8372 161.609C46.1137 165.813 40.5084 170.156 35.0212 174.636C29.9175 178.798 24.917 183.071 20.0198 187.456C18.9725 188.39 17.4089 186.879 18.4561 185.946C19.7468 184.784 21.0523 183.629 22.3577 182.489C26.0454 179.268 29.7921 176.109 33.598 173.011C40.5379 167.353 47.6576 161.913 54.957 156.691C66.3078 148.567 78.0493 140.994 90.1816 133.972C96.2443 130.466 102.39 127.107 108.62 123.895C110.501 122.926 112.404 121.978 114.329 121.08C118.696 118.951 123.235 117.166 127.899 115.742C134.507 113.677 141.498 113.013 148.395 113.797C155.055 114.733 161.471 116.878 167.306 120.118C179.696 126.81 189.306 137.158 198.658 147.256C199.603 148.282 198.046 149.8 197.095 148.774Z" fill="#E4E4E4"/>
<path d="M450.972 250.538L480.663 240.045L495.405 234.835C500.206 233.139 504.995 231.207 509.958 229.992C514.271 228.802 518.851 228.858 523.131 230.154C526.948 231.519 530.443 233.612 533.406 236.309C536.433 239.002 539.25 241.909 541.833 245.005C545.043 248.732 548.205 252.498 551.381 256.251C564.49 271.742 577.514 287.301 590.452 302.926C603.389 318.551 616.24 334.243 629.004 350.001C641.8 365.798 654.508 381.66 667.127 397.589C668.673 399.541 670.218 401.493 671.761 403.446C672.614 404.525 674.536 403.461 673.672 402.367C660.959 386.278 648.158 370.255 635.268 354.298C622.346 338.303 609.335 322.375 596.235 306.516C583.135 290.656 569.946 274.866 556.669 259.144C553.361 255.227 550.048 251.315 546.73 247.407C543.93 244.11 541.162 240.778 538.092 237.709C532.456 232.077 525.415 227.1 516.986 226.965C512.03 226.885 507.234 228.405 502.63 230.014C497.666 231.749 492.714 233.517 487.757 235.269L457.859 245.835L450.384 248.477C449.058 248.946 449.63 251.013 450.972 250.538L450.972 250.538Z" fill="#E4E4E4"/>
<path d="M158.044 132.233C142.956 124.74 123.633 126.207 109.768 135.569C136.215 139.977 162.372 145.876 188.106 153.235C177.419 147.184 169.06 137.703 158.044 132.233Z" fill="#F2F2F2"/>
<path d="M109.62 135.543L106.715 137.824C107.698 137.026 108.719 136.277 109.768 135.569C109.719 135.56 109.669 135.551 109.62 135.543Z" fill="#F2F2F2"/>
<path d="M532.288 250.643C529.365 247.206 526.205 243.606 521.834 242.21L517.752 242.365C548.821 295.413 590.783 341.766 641.06 378.579C604.803 335.934 568.545 293.288 532.288 250.643Z" fill="#F2F2F2"/>
<path d="M278.487 222.285C280.376 228.916 284.631 234.687 290.5 238.578C292.769 240.07 295.453 241.502 296.229 244.046C296.637 245.668 296.386 247.379 295.526 248.827C294.668 250.256 293.624 251.574 292.42 252.746L292.31 253.144C286.679 249.92 281.323 245.842 278.213 240.278C275.102 234.713 274.668 227.421 278.487 222.285" fill="#F2F2F2"/>
<path d="M465.942 380.093C467.831 386.724 472.086 392.495 477.955 396.386C480.224 397.879 482.908 399.311 483.684 401.855C484.093 403.477 483.841 405.188 482.981 406.636C482.123 408.065 481.079 409.382 479.875 410.555L479.765 410.953C474.134 407.729 468.778 403.65 465.668 398.086C462.558 392.522 462.123 385.229 465.942 380.093" fill="#F2F2F2"/>
<path d="M91.8366 369.21C93.7253 375.841 97.9804 381.612 103.849 385.503C106.118 386.996 108.802 388.428 109.579 390.972C109.987 392.593 109.735 394.305 108.876 395.752C108.018 397.182 106.974 398.499 105.769 399.671L105.659 400.069C100.029 396.845 94.6723 392.767 91.5621 387.203C88.4519 381.639 88.0177 374.346 91.8366 369.21" fill="#F2F2F2"/>
<path d="M522.339 79.2929C545 79.2929 563.37 61.5426 563.37 39.6465C563.37 17.7503 545 0 522.339 0C499.678 0 481.308 17.7503 481.308 39.6465C481.308 61.5426 499.678 79.2929 522.339 79.2929Z" fill="#E95420"/>
<path d="M596.384 9.22781C576.499 6.63062 553.796 17.0162 548.642 35.7548C547.343 32.4231 544.982 29.5766 541.899 27.6265C538.817 25.6765 535.172 24.7239 531.492 24.9064C527.813 25.0888 524.288 26.3969 521.428 28.6416C518.568 30.8863 516.521 33.9514 515.581 37.3941L517.858 38.9696C560.472 47.8739 604.584 47.6812 647.113 38.4049C633.28 24.3585 616.27 11.8249 596.384 9.22781Z" fill="#F0F0F0"/>
<path d="M511.104 62.0897C491.219 59.4926 468.516 69.8781 463.362 88.6168C462.063 85.285 459.702 82.4385 456.619 80.4885C453.537 78.5384 449.892 77.5858 446.212 77.7683C442.532 77.9507 439.008 79.2588 436.148 81.5035C433.288 83.7482 431.241 86.8133 430.301 90.256L432.578 91.8315C475.192 100.736 519.304 100.543 561.833 91.2669C548 77.2204 530.99 64.6869 511.104 62.0897Z" fill="#F0F0F0"/>
<path d="M684.663 72.0853C684.58 72.0854 684.498 72.0731 684.42 72.0488C471.697 7.04558 284.212 15.5459 164.389 34.1234C148.082 36.6506 131.732 39.5696 115.792 42.7998C111.723 43.6235 107.501 44.5064 103.244 45.4258C98.1607 46.5197 93.1446 47.6463 88.3347 48.7729C86.2574 49.2482 84.2207 49.7272 82.2245 50.21C79.2008 50.9312 76.1328 51.6828 72.844 52.5087C69.169 53.4243 65.4351 54.3846 61.7436 55.3632C61.7301 55.3678 61.7163 55.3716 61.7024 55.3746L61.7027 55.3753C57.5332 56.4753 53.3856 57.6073 49.3748 58.7377C47.204 59.3435 45.1078 59.9409 43.1 60.5308C42.8757 60.5908 42.6769 60.6485 42.4754 60.7077L42.044 60.8345C41.7942 60.9081 41.5475 60.9802 41.3008 61.0485L41.2851 61.0531L41.2855 61.0539L40.6326 61.2498C39.854 61.4776 39.0942 61.7 38.3471 61.9216C18.6 67.8036 7.74435 71.9881 7.63711 72.0291C7.53904 72.0671 7.43419 72.086 7.32855 72.0849C7.2229 72.0837 7.11853 72.0624 7.02139 72.0223C6.92424 71.9821 6.83623 71.9239 6.76238 71.8509C6.68854 71.7779 6.63029 71.6915 6.59098 71.5968C6.55167 71.502 6.53208 71.4007 6.53329 71.2986C6.5345 71.1965 6.55651 71.0957 6.59806 71.0018C6.6396 70.908 6.69987 70.8229 6.77543 70.7516C6.85099 70.6802 6.94036 70.6239 7.03842 70.586C7.14646 70.545 18.0551 66.3392 37.8741 60.4352C38.624 60.2128 39.3857 59.9903 40.1667 59.7618L40.7732 59.5796C40.794 59.572 40.8149 59.566 40.8361 59.5599C41.0816 59.4923 41.3267 59.4202 41.5758 59.3473L42.0079 59.2205C42.2232 59.1575 42.4353 59.0953 42.6526 59.0376C44.6466 58.4515 46.7498 57.8525 48.9261 57.2444C52.9386 56.1133 57.0901 54.9814 61.2628 53.8798C61.2757 53.8753 61.2891 53.8722 61.3021 53.8685V53.8677C65.0065 52.8861 68.7542 51.922 72.4409 51.0034C75.7349 50.1766 78.8088 49.4236 81.8376 48.7008C83.8422 48.2188 85.8829 47.7387 87.9595 47.2607C92.7749 46.1326 97.8012 45.0045 102.894 43.9082C107.157 42.9881 111.386 42.103 115.462 41.2785C131.427 38.043 147.803 35.1194 164.134 32.5884C284.128 13.9843 471.883 5.4703 684.905 70.5669C685.088 70.6228 685.244 70.7401 685.346 70.8978C685.447 71.0554 685.487 71.2429 685.457 71.4263C685.428 71.6098 685.332 71.7771 685.186 71.8979C685.04 72.0188 684.855 72.0852 684.663 72.0853V72.0853Z" fill="#CCCCCC"/>
<path d="M211.582 326.376C211.303 325.589 210.834 324.877 210.214 324.3C209.985 324.095 209.738 323.91 209.474 323.748C207.374 322.396 204.237 322.093 202.241 323.748C202.04 323.917 201.855 324.101 201.686 324.3C201.091 325.008 200.479 325.7 199.852 326.376C198.822 327.511 197.768 328.607 196.666 329.672C196.352 329.967 196.038 330.271 195.717 330.566C195.532 330.745 195.347 330.916 195.161 331.087C194.453 331.74 193.729 332.37 192.997 332.991C192.611 333.326 192.225 333.652 191.831 333.971C191.243 334.445 190.656 334.919 190.061 335.378C190.004 335.417 189.948 335.456 189.892 335.502C189.876 335.51 189.868 335.526 189.852 335.534C189.844 335.534 189.835 335.533 189.827 335.549C189.806 335.557 189.786 335.571 189.771 335.588C189.594 335.705 189.473 335.782 189.385 335.852C189.417 335.837 189.449 335.813 189.482 335.798C189.337 335.907 189.184 336.016 189.039 336.124C187.631 337.127 186.191 338.091 184.719 338.993C181.076 341.246 177.25 343.208 173.278 344.862C173.013 344.963 172.739 345.072 172.466 345.173C162.067 349.29 150.787 350.896 139.601 349.853C138.458 349.767 137.316 349.651 136.173 349.503C134.854 349.316 133.543 349.091 132.239 348.835C127.277 347.878 122.423 346.462 117.742 344.606C111.886 342.015 106.318 338.858 101.12 335.184C100.316 334.632 99.5031 334.08 98.6905 333.543C99.6157 331.351 100.525 329.159 101.41 326.951C101.852 325.886 102.279 324.821 102.697 323.748C105.988 315.485 109.077 307.144 112.038 298.771C115.03 290.29 117.854 281.759 120.509 273.18C120.783 272.309 121.048 271.438 121.306 270.568C122.698 266.036 124.033 261.493 125.312 256.94C125.433 256.497 125.562 256.062 125.674 255.619C126.044 254.313 126.406 253.007 126.76 251.701C127.565 248.754 125.747 245.233 122.545 244.525C121.003 244.144 119.368 244.355 117.984 245.115C116.601 245.874 115.576 247.124 115.127 248.599C114.781 249.858 114.435 251.11 114.081 252.369C112.384 258.456 110.598 264.522 108.723 270.568C108.449 271.438 108.176 272.309 107.902 273.18C103.767 286.349 99.2268 299.385 94.2817 312.29C93.6863 313.852 93.0829 315.41 92.4715 316.962C92.1738 317.724 91.8761 318.486 91.5704 319.247C90.9831 320.748 90.3797 322.248 89.7763 323.748C89.4303 324.627 89.0763 325.505 88.7224 326.376C88.4891 326.928 88.2638 327.48 88.0385 328.024C85.7447 327.228 83.3681 326.676 80.9506 326.376L80.5645 326.329C78.6902 326.111 76.7948 326.127 74.9247 326.376C72.1258 326.692 69.4328 327.597 67.0361 329.029C64.6394 330.461 62.5974 332.384 61.0546 334.663C57.217 340.501 57.2653 348.85 62.6476 353.81C68.1908 358.917 76.582 358.878 83.1068 355.683C86.5645 353.876 89.4799 351.235 91.5704 348.018C92.3713 346.852 93.1071 345.645 93.7748 344.403C93.9438 344.512 94.1127 344.621 94.2817 344.738C94.9253 345.173 95.5689 345.616 96.2045 346.051C99.9077 348.644 103.81 350.959 107.878 352.978C116.625 357.18 126.04 359.931 135.731 361.117C135.948 361.14 136.157 361.172 136.375 361.195C137.445 361.327 138.523 361.428 139.601 361.514C155.066 362.64 170.549 359.582 184.316 352.683C185.483 352.1 186.639 351.488 187.784 350.848C189.562 349.853 191.3 348.796 192.997 347.676C193.923 347.07 194.824 346.456 195.717 345.81C199.619 343.033 203.257 339.924 206.586 336.521C207.849 335.238 209.058 333.914 210.214 332.548C211.307 331.431 211.937 329.965 211.984 328.428C211.978 327.726 211.842 327.031 211.582 326.376V326.376ZM78.3601 344.893C78.529 344.777 78.698 344.652 78.8589 344.528C78.8106 344.644 78.5773 344.777 78.3601 344.893H78.3601ZM80.9426 342.382C80.7575 342.584 80.5886 342.786 80.4035 342.989C79.8406 343.597 79.2358 344.169 78.5934 344.699C78.5049 344.777 78.4083 344.854 78.3118 344.924C78.3107 344.924 78.3097 344.924 78.3087 344.925C78.3077 344.925 78.3068 344.926 78.306 344.926C78.3053 344.927 78.3047 344.928 78.3043 344.929C78.3039 344.93 78.3037 344.931 78.3037 344.932C78.1875 344.982 78.0747 345.039 77.9658 345.103C77.6199 345.305 77.2659 345.492 76.9039 345.663C76.195 345.915 75.4658 346.11 74.7236 346.246C74.1533 346.286 73.5809 346.291 73.01 346.261H72.9938C72.5998 346.177 72.2105 346.073 71.8273 345.95C71.6342 345.857 71.4492 345.748 71.2641 345.639C71.1917 345.577 71.1273 345.515 71.0871 345.476C71.0085 345.407 70.9359 345.332 70.87 345.251C70.87 345.25 70.8698 345.249 70.8694 345.248C70.869 345.247 70.8684 345.246 70.8676 345.245C70.8669 345.245 70.866 345.244 70.865 345.244C70.864 345.243 70.863 345.243 70.8619 345.243C70.7734 345.088 70.6768 344.932 70.5884 344.777C70.5838 344.773 70.5809 344.767 70.5803 344.761C70.5159 344.567 70.4596 344.365 70.4114 344.162C70.3939 343.808 70.3966 343.452 70.4194 343.097C70.5274 342.601 70.6726 342.112 70.8538 341.636C71.0167 341.298 71.2022 340.971 71.409 340.656C71.4251 340.625 71.5055 340.501 71.594 340.361C71.6021 340.353 71.6021 340.353 71.6021 340.346C71.7227 340.213 71.8434 340.073 71.9722 339.949C72.1894 339.716 72.4227 339.514 72.656 339.304C73.1098 339.017 73.5798 338.755 74.0639 338.519C74.832 338.255 75.6201 338.05 76.4212 337.905C77.6025 337.814 78.7898 337.824 79.9692 337.936C81.0862 338.123 82.1884 338.385 83.2677 338.721C82.6136 339.947 81.8688 341.127 81.0392 342.25C81.007 342.297 80.9748 342.343 80.9426 342.382V342.382ZM71.9962 339.825C71.9254 339.935 71.8417 340.036 71.7468 340.128C71.8107 340.013 71.8951 339.911 71.9962 339.825V339.825Z" fill="#3F3D56"/>
<path d="M187.398 246.982C187.325 249.423 187.253 251.864 187.181 254.305C187.028 259.723 186.869 265.144 186.706 270.568C186.537 276.67 186.36 282.77 186.175 288.867C186.086 292.016 185.995 295.164 185.901 298.312C185.652 306.794 185.405 315.272 185.161 323.748C185.137 324.627 185.105 325.497 185.081 326.376C184.96 330.582 184.839 334.787 184.719 338.993C184.582 343.556 184.448 348.119 184.316 352.683C184.22 356.103 184.121 359.526 184.019 362.952C183.295 387.773 182.571 412.595 181.847 437.417C181.816 438.954 181.17 440.42 180.045 441.507C178.92 442.594 177.403 443.218 175.813 443.247C174.216 443.235 172.689 442.617 171.56 441.526C170.431 440.435 169.791 438.96 169.779 437.417C170.181 423.455 170.589 409.494 171.001 395.532C171.364 382.907 171.731 370.282 172.104 357.658C172.224 353.499 172.345 349.337 172.466 345.173C172.651 338.907 172.833 332.642 173.013 326.376C173.037 325.497 173.069 324.627 173.093 323.748C173.109 322.979 173.133 322.217 173.158 321.447C173.512 309.281 173.866 297.113 174.22 284.941C174.364 280.153 174.504 275.362 174.638 270.568C174.799 265.103 174.96 259.64 175.121 254.18C175.193 251.778 175.257 249.384 175.33 246.982C175.36 245.445 176.006 243.979 177.131 242.892C178.256 241.805 179.773 241.181 181.364 241.152C182.96 241.164 184.487 241.782 185.616 242.873C186.745 243.964 187.385 245.439 187.398 246.982V246.982Z" fill="#3F3D56"/>
<path d="M518.403 248.6C512.076 271.75 504.514 294.568 495.747 316.964C493.328 323.141 490.853 329.306 488.207 335.397L488.816 334.004C487.635 336.905 486.127 339.672 484.319 342.254C484.196 342.42 484.07 342.585 483.943 342.748C484.568 341.976 484.687 341.823 484.299 342.29C484.095 342.524 483.893 342.759 483.682 342.987C483.119 343.596 482.514 344.168 481.872 344.699C481.711 344.833 481.547 344.964 481.38 345.091L482.135 344.525C482.047 344.724 481.432 344.989 481.241 345.102C480.621 345.464 479.975 345.78 479.306 346.049L480.748 345.462C479.653 345.888 478.51 346.191 477.344 346.364L478.948 346.156C477.801 346.309 476.639 346.321 475.49 346.191L477.094 346.4C476.153 346.275 475.233 346.035 474.355 345.687L475.796 346.275C475.327 346.077 474.876 345.844 474.445 345.578C474.227 345.44 473.556 344.949 474.433 345.597C475.345 346.27 474.551 345.655 474.363 345.476C474.207 345.327 474.065 345.165 473.913 345.013C473.203 344.31 474.714 346.223 474.232 345.401C473.974 344.989 473.738 344.564 473.525 344.129L474.134 345.521C473.857 344.858 473.66 344.167 473.548 343.46L473.763 345.01C473.648 344.131 473.647 343.242 473.761 342.363L473.545 343.913C473.693 342.932 473.962 341.972 474.346 341.052L473.737 342.445C474.005 341.827 474.322 341.229 474.685 340.658C474.852 340.363 475.049 340.084 475.271 339.825C475.311 339.838 474.251 341.001 474.813 340.414C474.96 340.26 475.098 340.098 475.247 339.946C475.485 339.702 475.74 339.479 475.991 339.248C476.832 338.475 474.815 339.999 475.785 339.387C476.488 338.941 477.228 338.551 477.997 338.222L476.556 338.809C477.844 338.298 479.194 337.948 480.574 337.768L478.97 337.976C480.699 337.784 482.445 337.804 484.168 338.035L482.564 337.827C484.746 338.147 486.879 338.727 488.913 339.553L487.472 338.965C491.808 340.764 495.648 343.435 499.482 346.053C503.184 348.644 507.086 350.959 511.152 352.977C519.9 357.18 529.316 359.932 539.007 361.119C552.906 362.764 567.009 361.01 580.024 356.019C593.039 351.027 604.548 342.957 613.495 332.549C614.586 331.43 615.215 329.963 615.262 328.426C615.251 326.882 614.617 325.403 613.495 324.304C611.281 322.34 607.099 321.786 604.961 324.304C602.935 326.694 600.757 328.959 598.439 331.088C597.357 332.08 596.246 333.041 595.107 333.972C594.456 334.503 593.796 335.024 593.127 335.535C592.81 335.777 591.825 336.42 593.339 335.382C592.992 335.62 592.659 335.879 592.316 336.124C587.249 339.733 581.759 342.751 575.959 345.114L577.4 344.526C571.176 347.049 564.639 348.78 557.954 349.675L559.558 349.466C552.68 350.34 545.713 350.33 538.838 349.437L540.442 349.645C533.569 348.733 526.847 346.964 520.444 344.382L521.885 344.97C515.707 342.328 509.843 339.046 504.398 335.182C501.564 333.154 498.575 331.336 495.457 329.744C491.825 327.952 487.892 326.797 483.841 326.333C476.248 325.469 468.509 328.327 464.335 334.667C460.493 340.501 460.542 348.849 465.923 353.81C471.464 358.919 479.856 358.876 486.386 355.68C492.676 352.602 496.453 346.207 499.11 340.178C505.088 326.608 510.381 312.725 515.313 298.772C520.192 284.967 524.616 271.023 528.586 256.938C529.078 255.194 529.563 253.448 530.04 251.7C530.845 248.755 529.026 245.232 525.826 244.528C524.284 244.144 522.647 244.354 521.263 245.114C519.878 245.874 518.853 247.124 518.403 248.6L518.403 248.6Z" fill="#3F3D56"/>
<path d="M578.608 246.982L576.436 321.449L574.276 395.529L573.054 437.418C573.068 438.96 573.708 440.435 574.837 441.526C575.965 442.616 577.492 443.235 579.088 443.248C580.679 443.218 582.196 442.594 583.321 441.507C584.446 440.42 585.091 438.955 585.122 437.418L587.294 362.95L589.455 288.87L590.676 246.982C590.663 245.439 590.023 243.964 588.894 242.873C587.765 241.783 586.238 241.164 584.642 241.151C583.052 241.181 581.535 241.805 580.41 242.892C579.285 243.979 578.639 245.445 578.608 246.982V246.982Z" fill="#3F3D56"/>
<path opacity="0.2" d="M369.754 416.626H371.628V334.191H415.337V332.385H371.628V297.602H405.382C404.888 296.994 404.378 296.394 403.855 295.801H371.628V272.827C371.008 272.572 370.384 272.326 369.754 272.094V295.801H333.026V266.365C332.397 266.393 331.777 266.435 331.152 266.486V295.801H301.851V273.839C301.222 274.108 300.602 274.391 299.987 274.689V295.801H275.356V297.602H299.987V332.385H275.356V334.191H299.987V416.626H301.851V334.191C305.699 334.191 309.51 334.922 313.065 336.345C316.62 337.767 319.851 339.853 322.572 342.482C325.293 345.111 327.451 348.233 328.923 351.668C330.396 355.103 331.153 358.785 331.152 362.504V416.626H333.026V334.191H369.754V416.626ZM301.851 332.385V297.602H331.152V332.385H301.851ZM333.026 332.385V297.602H333.761C338.488 297.602 343.169 298.502 347.536 300.25C351.903 301.999 355.871 304.561 359.213 307.791C362.555 311.021 365.206 314.855 367.015 319.075C368.824 323.295 369.755 327.818 369.754 332.385H333.026Z" fill="black"/>
<path d="M358.312 391.909C355.953 402.076 350.303 411.253 342.181 418.107C341.586 418.604 340.99 419.086 340.371 419.561C338.866 419.693 337.373 419.828 335.89 419.965C334.659 420.074 333.444 420.19 332.237 420.299L332.02 420.322L331.867 419.048L331.255 413.886C328.884 410.144 327.413 405.934 326.954 401.569C326.494 397.204 327.057 392.794 328.601 388.667C330.725 383.133 334.57 378.243 338.351 373.392C343.573 366.691 348.649 360.068 348.834 351.897C351.404 355.074 353.54 358.557 355.19 362.26C353.633 362.968 352.234 363.964 351.071 365.19C350.741 365.54 350.411 366.03 350.637 366.45C350.83 366.808 351.312 366.893 351.731 366.94C352.736 367.041 353.75 367.142 354.756 367.243C355.56 367.328 356.365 367.406 357.169 367.492C358.143 370.578 358.803 373.75 359.14 376.96C359.683 381.954 359.403 387 358.312 391.909V391.909Z" fill="#3F3D56"/>
<path d="M385.022 371.534C380.275 374.869 377.5 379.665 375.344 384.952C373.134 385.635 371.146 386.862 369.575 388.512C369.245 388.862 368.915 389.352 369.141 389.771C369.334 390.129 369.817 390.215 370.235 390.261C371.241 390.362 372.254 390.463 373.26 390.564C371.104 396.814 369.125 403.282 365.311 408.561C362.775 412.046 359.469 414.943 355.633 417.042C354.587 417.618 353.507 418.134 352.399 418.589C348.311 418.892 344.302 419.216 340.371 419.561C338.866 419.693 337.373 419.828 335.89 419.965C334.659 420.074 333.444 420.19 332.237 420.299C332.229 419.872 332.229 419.444 332.237 419.016C332.492 407.627 336.828 396.675 344.506 388.03C344.868 387.626 345.238 387.229 345.616 386.833C349.506 382.818 354.081 379.479 359.14 376.96C367.113 372.955 376.049 371.081 385.022 371.534V371.534Z" fill="#E95420"/>
<path d="M337.281 415.977L336.356 418.62L335.89 419.965C334.659 420.074 333.444 420.19 332.237 420.299L332.02 420.323C330.684 420.455 329.357 420.587 328.029 420.719C327.683 420.33 327.337 419.934 327 419.53C318.602 409.704 314.571 397.065 315.788 384.377C317.004 371.688 323.369 359.98 333.492 351.812C332.43 357.184 333.669 362.33 335.705 367.437C335.487 367.523 335.278 367.608 335.077 367.702C333.52 368.41 332.12 369.406 330.958 370.632C330.628 370.982 330.298 371.472 330.523 371.892C330.716 372.249 331.199 372.335 331.618 372.381C332.623 372.482 333.637 372.583 334.643 372.685C335.447 372.77 336.252 372.848 337.056 372.933C337.434 372.972 337.812 373.011 338.191 373.05C338.247 373.167 338.295 373.275 338.351 373.392C340.644 378.196 343.114 383.024 344.506 388.03C344.855 389.286 345.129 390.561 345.327 391.847C345.946 396.195 345.545 400.621 344.152 404.799C342.759 408.976 340.411 412.796 337.281 415.977V415.977Z" fill="#E95420"/>
<path d="M418.264 303.226C411.338 290.172 400.607 279.189 387.988 271.117C375.327 263.057 360.799 258.149 345.699 256.829C343.72 256.655 341.736 256.554 339.747 256.524C337.396 256.49 302.042 266.343 290.198 274.39C278.361 282.338 268.624 292.863 261.772 305.117C254.932 317.438 251.567 331.281 252.016 345.256C252.603 359.315 256.658 373.035 263.845 385.272C270.934 397.47 280.999 407.81 293.166 415.393C305.505 423.001 317.901 443.173 332.47 443.885C347.15 444.602 363.891 425.574 377.279 419.796C390.667 413.97 402.241 404.856 410.848 393.361C419.212 382.097 424.622 369.039 426.616 355.31C428.687 341.253 427.721 326.755 422.753 313.319C421.478 309.867 419.979 306.496 418.264 303.226C416.832 300.501 412.635 299.498 410.008 301.134C408.655 301.94 407.674 303.218 407.271 304.704C406.868 306.189 407.073 307.768 407.843 309.111C408.684 310.712 409.466 312.338 410.189 313.991L409.581 312.599C412.316 318.954 414.176 325.629 415.113 332.452L414.897 330.902C415.894 338.304 415.876 345.801 414.844 353.199L415.06 351.649C414.017 359.046 411.973 366.279 408.982 373.162L409.59 371.77C408.051 375.282 406.258 378.684 404.223 381.952C403.191 383.603 402.097 385.215 400.94 386.789C400.431 387.479 399.908 388.158 399.38 388.834C398.691 389.717 400.319 387.681 399.607 388.547C399.486 388.694 399.365 388.842 399.243 388.989C398.878 389.431 398.507 389.868 398.132 390.301C395.623 393.193 392.886 395.892 389.944 398.373C389.212 398.991 388.467 399.595 387.71 400.186C387.332 400.48 386.96 400.786 386.566 401.06C386.581 401.049 387.837 400.127 387.094 400.663C386.86 400.831 386.628 401.002 386.394 401.169C384.834 402.287 383.231 403.347 381.588 404.35C377.804 406.654 373.834 408.659 369.716 410.346L371.158 409.759C364.055 412.648 356.591 414.621 348.956 415.629L350.56 415.421C342.928 416.417 335.194 416.431 327.559 415.46L329.163 415.668C322.224 414.768 315.436 412.995 308.973 410.394L310.414 410.982C306.671 409.455 303.061 407.637 299.621 405.547C297.918 404.511 296.26 403.41 294.646 402.246C294.416 402.08 294.187 401.911 293.958 401.744C293.222 401.207 294.487 402.14 294.497 402.146C294.069 401.85 293.657 401.532 293.262 401.194C292.483 400.581 291.715 399.953 290.96 399.312C287.939 396.74 285.117 393.958 282.518 390.986C281.868 390.243 281.231 389.489 280.608 388.724C280.339 388.392 279.847 387.721 280.933 389.135C280.79 388.949 280.642 388.766 280.498 388.581C280.151 388.137 279.809 387.689 279.471 387.238C278.29 385.658 277.167 384.04 276.102 382.383C273.696 378.631 271.597 374.704 269.822 370.638L270.431 372.03C267.527 365.355 265.542 358.341 264.525 351.168L264.741 352.718C263.823 346.105 263.81 339.405 264.702 332.789L264.486 334.339C265.4 327.932 267.184 321.67 269.792 315.713L269.183 317.106C270.824 313.377 272.759 309.776 274.972 306.335C276.08 304.612 277.254 302.932 278.494 301.293C278.776 300.921 279.061 300.551 279.349 300.184C279.61 299.851 280.326 299.023 279.103 300.485C279.223 300.342 279.339 300.194 279.457 300.05C280.137 299.217 280.834 298.397 281.548 297.589C284.25 294.534 287.176 291.671 290.304 289.022C291.095 288.353 291.898 287.697 292.713 287.056C293.084 286.765 293.457 286.476 293.833 286.191C293.983 286.077 294.135 285.965 294.284 285.85C292.677 287.086 293.838 286.186 294.203 285.922C295.883 284.705 297.609 283.549 299.38 282.454C303.316 280.022 307.457 277.913 311.759 276.151L310.318 276.739C316.561 274.206 344.221 268.227 349.252 268.88L347.648 268.671C355.042 269.669 362.269 271.598 369.145 274.41L367.703 273.823C371.187 275.252 374.573 276.896 377.84 278.743C379.473 279.667 381.073 280.642 382.641 281.668C383.383 282.153 384.118 282.649 384.844 283.156C385.207 283.41 385.568 283.666 385.927 283.925C386.127 284.069 386.325 284.215 386.524 284.359C387.36 284.965 385.372 283.482 386.249 284.152C389.182 286.378 391.968 288.781 394.59 291.345C395.878 292.612 397.121 293.919 398.32 295.267C398.935 295.958 399.538 296.66 400.128 297.372C400.421 297.725 401.419 299.005 400.196 297.438C400.495 297.821 400.797 298.201 401.092 298.587C403.634 301.912 405.892 305.432 407.843 309.111C409.286 311.83 413.464 312.844 416.099 311.203C417.453 310.398 418.434 309.12 418.837 307.634C419.24 306.148 419.035 304.569 418.264 303.226Z" fill="#3F3D56"/>
<path d="M347.956 398.374C347.333 398.401 346.716 398.243 346.19 397.921C345.663 397.599 345.251 397.128 345.011 396.572C344.77 396.016 344.712 395.402 344.845 394.813C344.978 394.225 345.294 393.69 345.752 393.281C345.829 392.986 345.884 392.775 345.96 392.48C345.933 392.416 345.905 392.352 345.878 392.288C343.078 385.838 325.213 403.819 324.441 409.882C324.101 412.561 324.244 415.278 324.865 417.91C319.078 405.713 316.073 392.456 316.054 379.039C316.053 375.672 316.247 372.308 316.634 368.961C316.954 366.218 317.399 363.495 317.967 360.791C321.069 346.119 327.728 332.367 337.398 320.665C342.928 320.963 347.774 320.149 348.242 309.793C348.326 307.951 349.74 306.356 350.051 304.541C349.523 304.608 348.987 304.65 348.459 304.683C348.294 304.692 348.121 304.7 347.957 304.708L347.895 304.711C347.314 304.736 346.739 304.599 346.238 304.315C345.737 304.032 345.331 303.614 345.069 303.113C344.808 302.612 344.702 302.049 344.764 301.491C344.826 300.933 345.054 300.404 345.42 299.968C345.648 299.697 345.876 299.426 346.104 299.155C346.451 298.737 346.806 298.327 347.152 297.909C347.192 297.869 347.229 297.828 347.264 297.784C347.662 297.307 348.061 296.839 348.459 296.362C347.732 295.272 346.755 294.359 345.603 293.694C341.613 291.436 336.108 293 333.226 296.487C330.335 299.975 329.79 304.867 330.794 309.224C331.781 312.932 333.414 316.45 335.623 319.628C335.407 319.896 335.182 320.155 334.965 320.422C331.01 325.337 327.563 330.614 324.673 336.178C325.49 330.007 315.492 307.72 311.625 302.999C306.98 297.329 297.456 299.804 296.638 306.992C296.63 307.061 296.622 307.131 296.615 307.2C297.189 307.514 297.751 307.846 298.302 308.197C298.993 308.644 299.528 309.281 299.838 310.026C300.147 310.771 300.217 311.59 300.037 312.374C299.857 313.158 299.437 313.871 298.83 314.42C298.224 314.969 297.46 315.328 296.638 315.451L296.554 315.463C288.867 326.069 313.512 353.675 319.681 347.477C316.777 355.428 314.956 363.71 314.263 372.114C313.87 377.073 313.893 382.054 314.332 387.009L314.306 386.833C312.935 376.041 289.421 359.996 282.554 361.332C278.598 362.102 274.702 361.927 275.303 365.783C275.313 365.844 275.322 365.906 275.332 365.967C276.398 366.387 277.436 366.87 278.439 367.414C279.014 367.727 279.576 368.06 280.126 368.411C280.817 368.857 281.352 369.495 281.662 370.24C281.972 370.985 282.041 371.803 281.862 372.587C281.682 373.371 281.261 374.085 280.655 374.634C280.048 375.183 279.284 375.542 278.463 375.664L278.379 375.677C278.318 375.685 278.266 375.694 278.206 375.702C274.706 387.337 300.658 406.113 316.435 400.139H316.444C318.007 406.704 320.273 413.094 323.203 419.206H347.351C347.437 418.947 347.515 418.679 347.593 418.42C345.358 418.556 343.114 418.427 340.911 418.036C342.703 415.911 344.495 413.77 346.286 411.646C346.326 411.607 346.364 411.565 346.399 411.521C347.308 410.434 348.225 409.355 349.134 408.268L349.134 408.266C349.183 404.934 348.787 401.609 347.957 398.374L347.956 398.374ZM320.304 345.813L320.316 345.796L320.304 345.829V345.813ZM314.955 392.403L314.747 391.951C314.756 391.625 314.756 391.299 314.747 390.964C314.747 390.872 314.73 390.781 314.73 390.688C314.808 391.266 314.877 391.843 314.964 392.42L314.955 392.403Z" fill="#3F3D56"/>
<path d="M76.6303 349.822C81.5179 349.822 85.4801 345.993 85.4801 341.271C85.4801 336.548 81.5179 332.719 76.6303 332.719C71.7427 332.719 67.7805 336.548 67.7805 341.271C67.7805 345.993 71.7427 349.822 76.6303 349.822Z" fill="#3F3D56"/>
<path d="M182.828 443.108C187.716 443.108 191.678 439.279 191.678 434.556C191.678 429.834 187.716 426.005 182.828 426.005C177.94 426.005 173.978 429.834 173.978 434.556C173.978 439.279 177.94 443.108 182.828 443.108Z" fill="#3F3D56"/>
<path d="M585.897 443.108C590.784 443.108 594.747 439.279 594.747 434.556C594.747 429.834 590.784 426.005 585.897 426.005C581.009 426.005 577.047 429.834 577.047 434.556C577.047 439.279 581.009 443.108 585.897 443.108Z" fill="#3F3D56"/>
<path d="M607.619 334.274C612.507 334.274 616.469 330.446 616.469 325.723C616.469 321 612.507 317.172 607.619 317.172C602.731 317.172 598.769 321 598.769 325.723C598.769 330.446 602.731 334.274 607.619 334.274Z" fill="#3F3D56"/>
<path d="M581.874 254.981C586.762 254.981 590.724 251.153 590.724 246.43C590.724 241.707 586.762 237.879 581.874 237.879C576.986 237.879 573.024 241.707 573.024 246.43C573.024 251.153 576.986 254.981 581.874 254.981Z" fill="#3F3D56"/>
<path d="M212.596 325.723C212.59 327.907 211.716 330.006 210.154 331.585C208.592 333.164 206.461 334.102 204.203 334.205C201.945 334.308 199.732 333.569 198.023 332.139C196.314 330.71 195.238 328.701 195.019 326.527C194.801 324.353 195.455 322.18 196.848 320.46C198.24 318.739 200.264 317.602 202.501 317.283C204.737 316.964 207.015 317.488 208.862 318.746C210.71 320.005 211.986 321.901 212.427 324.044C212.54 324.597 212.597 325.159 212.596 325.723V325.723Z" fill="#3F3D56"/>
<path d="M389.592 279.857C394.479 279.857 398.442 276.029 398.442 271.306C398.442 266.584 394.479 262.755 389.592 262.755C384.704 262.755 380.742 266.584 380.742 271.306C380.742 276.029 384.704 279.857 389.592 279.857Z" fill="#3F3D56"/>
<path d="M301.898 271.306C301.893 273.491 301.019 275.589 299.457 277.168C297.894 278.747 295.764 279.685 293.506 279.788C291.248 279.892 289.035 279.152 287.326 277.723C285.616 276.293 284.541 274.284 284.322 272.11C284.103 269.936 284.758 267.764 286.15 266.043C287.543 264.322 289.567 263.185 291.803 262.866C294.04 262.547 296.317 263.071 298.165 264.329C300.012 265.588 301.289 267.485 301.729 269.627C301.843 270.18 301.899 270.743 301.898 271.306V271.306Z" fill="#3F3D56"/>
<path d="M187.655 246.43C187.65 248.614 186.776 250.713 185.214 252.292C183.651 253.871 181.521 254.809 179.263 254.912C177.005 255.015 174.792 254.276 173.083 252.847C171.373 251.417 170.298 249.408 170.079 247.234C169.86 245.06 170.515 242.888 171.907 241.167C173.3 239.446 175.324 238.309 177.56 237.99C179.797 237.671 182.074 238.195 183.922 239.453C185.769 240.712 187.046 242.608 187.486 244.751C187.6 245.304 187.656 245.866 187.655 246.43V246.43Z" fill="#3F3D56"/>
<path d="M482.113 352.931C487 352.931 490.962 349.103 490.962 344.38C490.962 339.657 487 335.829 482.113 335.829C477.225 335.829 473.263 339.657 473.263 344.38C473.263 349.103 477.225 352.931 482.113 352.931Z" fill="#3F3D56"/>
<path d="M342.929 275.193C350.038 275.193 355.802 269.624 355.802 262.755C355.802 255.886 350.038 250.317 342.929 250.317C335.82 250.317 330.057 255.886 330.057 262.755C330.057 269.624 335.82 275.193 342.929 275.193Z" fill="#3F3D56"/>
<path d="M691.042 443.761L0.957931 444C0.832133 444 0.707563 443.976 0.591341 443.93C0.475119 443.883 0.369523 443.815 0.280571 443.729C0.191618 443.643 0.121049 443.541 0.0729079 443.429C0.0247671 443.316 0 443.196 0 443.074C0 442.953 0.0247671 442.833 0.0729079 442.72C0.121049 442.608 0.191618 442.506 0.280571 442.42C0.369523 442.334 0.475119 442.266 0.591341 442.219C0.707563 442.173 0.832133 442.149 0.957931 442.149L691.042 441.91C691.296 441.911 691.539 442.008 691.718 442.182C691.897 442.355 691.997 442.59 691.997 442.836C691.997 443.081 691.897 443.316 691.718 443.489C691.539 443.663 691.296 443.76 691.042 443.761V443.761Z" fill="#CACACA"/>
</svg>
